<?xml version="1.0" encoding="UTF-8"?><svg id="Calque_2" xmlns="http://www.w3.org/2000/svg" viewBox="0 0 430.69 412.54"><g id="Calque_1-2"><path d="M429.6,411h-86.7V6.04c29.26-.19,58.53-.39,87.79-.58-.37,135.18-.73,270.36-1.1,405.55Z"/><path d="M92.9,411.9c-29.55,.21-59.1,.43-88.66,.64C2.83,277.86,1.42,143.18,0,8.49c31.14-1.21,62.29-2.43,93.43-3.64-.18,135.68-.35,271.37-.53,407.05Z"/><path d="M177.45,250.23h82.17c0,51.82-.01,103.64-.02,155.46-28.48,.67-56.97,1.33-85.45,2,1.1-52.49,2.2-104.97,3.29-157.46Z"/><path d="M261.33,164.52h-87.16L170.48,3.03c30.94-1.01,61.88-2.02,92.82-3.03-.66,54.84-1.31,109.68-1.97,164.52Z"/></g></svg>