<?xml version="1.0" encoding="UTF-8"?><svg id="Calque_2" xmlns="http://www.w3.org/2000/svg" viewBox="0 0 526.31 483.76"><g id="Calque_1-2"><path d="M98.74,4.69c141.06,137.88,282.13,275.76,423.19,413.64-20.22,21.81-40.44,43.62-60.66,65.44C315.91,341.27,170.55,198.77,25.19,56.27,49.71,39.08,74.22,21.88,98.74,4.69Z"/><path d="M355.59,205.51c-18.56-19.3-37.12-38.61-55.69-57.91C357.82,98.4,415.73,49.2,473.65,0c17.55,16.31,35.11,32.61,52.66,48.92-56.91,52.2-113.81,104.39-170.72,156.59Z"/><path d="M170.72,236.96c18.56,19.3,37.12,38.61,55.69,57.91-57.91,49.2-115.83,98.4-173.74,147.6-17.55-16.31-35.11-32.61-52.66-48.92,56.91-52.2,113.81-104.39,170.72-156.59Z"/></g></svg>